#!OML:ASF H:\LiuWeirdWalks\Patient Classification 1\Patient 1\Session 1\male.ASF
:FULLY-SPECIFIED
:DEGREES
462
root -0.158098 17.713 -18.4446 -4.75742 18.0739 9.43624
lowerback 4.31365 -2.77631 6.66624
upperback -1.04769 -2.81077 11.8107
thorax -3.27081 -1.35308 9.01181
lowerneck -17.8057 -2.31779 3.42542
upperneck 21.6994 0.682725 -20.1792
head 9.99164 -1.71637 -7.81412
rclavicle 1.98785e-014 -9.54166e-015
rhumerus -33.2735 -28.0948 -4.27292
rradius 38.0521
rwrist -8.16234
rhand -21.7094 -0.671332
rfingers 7.12502
rthumb 4.68942 -30.5994
lclavicle 1.98785e-014 -9.54166e-015
lhumerus -18.7591 22.4934 18.3803
lradius 40.8571
lwrist 9.28896
lhand -15.409 4.03824
lfingers 7.12502
lthumb 10.7703 33.7421
rfemur -2.7418 -0.530884 6.77547
rtibia 40.1842
rfoot -16.0603 -28.1363
rtoes -3.93686
lfemur 4.39877 -0.597853 -16.3752
ltibia 53.9543
lfoot 7.15143 3.11261
ltoes -11.1478
463
root -0.178013 17.7062 -18.3699 -5.12227 17.9674 9.31298
lowerback 4.28955 -2.77024 6.74457
upperback -1.02045 -2.80481 11.8318
thorax -3.23189 -1.35133 8.9874
lowerneck -17.8031 -2.297 3.46067
upperneck 21.8355 0.742745 -20.2559
head 10.049 -1.69892 -7.85466
rclavicle 2.22639e-014 6.36111e-014
rhumerus -33.173 -28.1166 -4.41996
rradius 38.061
rwrist -8.11024
rhand -21.8277 -0.630538
rfingers 7.12502
rthumb 4.57518 -30.5611
lclavicle 2.22639e-014 6.36111e-014
lhumerus -18.5947 22.4701 18.463
lradius 40.8946
lwrist 9.73564
lhand -15.0049 3.70342
lfingers 7.12502
lthumb 11.16 33.3866
rfemur -2.15227 -0.328639 7.09989
rtibia 40.15
rfoot -16.1822 -28.2744
rtoes -3.99283
lfemur 4.03099 -0.426264 -16.304
ltibia 54.803
lfoot 6.85073 3.32362
ltoes -11.1776
464
root -0.196614 17.6992 -18.2965 -5.47179 17.846 9.21826
lowerback 4.2703 -2.75861 6.80459
upperback -0.994184 -2.79242 11.8417
thorax -3.19698 -1.34627 8.96062
lowerneck -17.7629 -2.30318 3.44278
upperneck 22.032 0.776173 -20.2833
head 10.1164 -1.69365 -7.87275
rclavicle 1.27222e-014 -6.36111e-014
rhumerus -33.084 -28.0965 -4.57844
rradius 38.0815
rwrist -8.07167
rhand -21.8943 -0.609323
rfingers 7.12502
rthumb 4.51079 -30.5413
lclavicle 1.27222e-014 -6.36111e-014
lhumerus -18.4322 22.4438 18.5545
lradius 40.9234
lwrist 10.1436
lhand -14.5699 3.35753
lfingers 7.12502
lthumb 11.5795 33.0176
rfemur -1.58591 -0.137509 7.39051
rtibia 40.1322
rfoot -16.2927 -28.4178
rtoes -4.04073
lfemur 3.67395 -0.251299 -16.2806
ltibia 55.5658
lfoot 6.56189 3.57318
ltoes -11.216
465
root -0.21416 17.6919 -18.2248 -5.80712 17.7149 9.12971
lowerback 4.24802 -2.74893 6.86052
upperback -0.972138 -2.78278 11.8539
thorax -3.16419 -1.34247 8.93895
lowerneck -17.6925 -2.33052 3.35051
upperneck 22.2539 0.7908 -20.2551
head 10.1844 -1.69723 -7.85867
rclavicle -7.95139e-016 8.90555e-014
rhumerus -32.9784 -28.0865 -4.73463
rradius 38.0937
rwrist -8.05707
rhand -21.8861 -0.56479
rfingers 7.12502
rthumb 4.51879 -30.4966
lclavicle -7.95139e-016 8.90555e-014
lhumerus -18.2984 22.3944 18.6534
lradius 40.9506
lwrist 10.4573
lhand -14.1848 3.09834
lfingers 7.12502
lthumb 11.9509 32.7372
rfemur -1.04522 0.0409066 7.67257
rtibia 40.1242
rfoot -16.4054 -28.5688
rtoes -4.05896
lfemur 3.3179 -0.0769137 -16.2781
ltibia 56.2456
lfoot 6.2414 3.87066
ltoes -11.3156
466
root -0.230327 17.6846 -18.1545 -6.12825 17.5702 9.04722
lowerback 4.22164 -2.73863 6.91979
upperback -0.953797 -2.77243 11.8638
thorax -3.13334 -1.33839 8.91284
lowerneck -17.6097 -2.36607 3.22033
upperneck 22.5143 0.801203 -20.1898
head 10.2634 -1.70299 -7.82635
rclavicle 7.15625e-015 -5.725e-014
rhumerus -32.8686 -28.045 -4.90043
rradius 38.1114
rwrist -8.08076
rhand -21.872 -0.536353
rfingers 7.12502
rthumb 4.5324 -30.4679
lclavicle 7.15625e-015 -5.725e-014
lhumerus -18.1858 22.3169 18.7572
lradius 40.9652
lwrist 10.5799
lhand -13.9176 2.93096
lfingers 7.12502
lthumb 12.2085 32.5547
rfemur -0.527425 0.204821 7.94283
rtibia 40.1222
rfoot -16.5318 -28.718
rtoes -4.0417
lfemur 2.96737 0.09735 -16.2963
ltibia 56.8434
lfoot 5.87233 4.23621
ltoes -11.3388
467
root -0.244931 17.6771 -18.0864 -6.43381 17.4092 8.96603
lowerback 4.19027 -2.72883 6.98808
upperback -0.94782 -2.76133 11.8731
thorax -3.11332 -1.33404 8.8812
lowerneck -17.494 -2.38965 3.10671
upperneck 22.7826 0.828521 -20.142
head 10.3414 -1.70018 -7.80127
rclavicle -3.02153e-014 -6.04305e-014
rhumerus -32.7512 -27.9816 -5.06903
rradius 38.1286
rwrist -8.13092
rhand -21.8861 -0.543814
rfingers 7.12502
rthumb 4.51879 -30.4756
lclavicle -3.02153e-014 -6.04305e-014
lhumerus -18.1046 22.2018 18.8573
lradius 40.9634
lwrist 10.5508
lhand -13.8003 2.87063
lfingers 7.12502
lthumb 12.3217 32.4876
rfemur -0.0399973 0.347876 8.2
rtibia 40.1229
rfoot -16.6627 -28.8509
rtoes -4.0053
lfemur 2.61663 0.276709 -16.3287
ltibia 57.362
lfoot 5.41641 4.66731
ltoes -11.4782
468
root -0.257899 17.6692 -18.0206 -6.71341 17.2494 8.904
lowerback 4.14518 -2.72321 7.05032
upperback -0.949706 -2.7574 11.8784
thorax -3.09298 -1.33322 8.84846
lowerneck -17.3723 -2.38192 3.07492
upperneck 22.9992 0.887449 -20.1697
head 10.4045 -1.68148 -7.81266
rclavicle 3.97569e-015 2.22639e-014
rhumerus -32.6208 -27.9304 -5.22966
rradius 38.1363
rwrist -8.16107
rhand -21.7792 -0.50916
rfingers 7.12502
rthumb 4.62199 -30.4387
lclavicle 3.97569e-015 2.22639e-014
lhumerus -18.0509 22.0747 18.9489
lradius 40.9455
lwrist 10.3919
lhand -13.7366 2.82848
lfingers 7.12502
lthumb 12.383 32.4417
rfemur 0.418436 0.45258 8.419
rtibia 40.1247
rfoot -16.8042 -28.9565
rtoes -3.95595
lfemur 2.2621 0.44723 -16.3971
ltibia 57.8001
lfoot 4.86667 5.153
ltoes -11.6489
469
root -0.269017 17.6613 -17.9564 -6.97399 17.0832 8.85747
lowerback 4.09804 -2.71624 7.11818
upperback -0.955181 -2.75155 11.8752
thorax -3.07613 -1.33167 8.80286
lowerneck -17.2918 -2.33809 3.15373
upperneck 23.2156 0.992217 -20.2955
head 10.483 -1.64405 -7.87984
rclavicle 5.48646e-014 -5.40694e-014
rhumerus -32.4953 -27.9146 -5.37199
rradius 38.1329
rwrist -8.12893
rhand -21.526 -0.409135
rfingers 7.12502
rthumb 4.86642 -30.3333
lclavicle 5.48646e-014 -5.40694e-014
lhumerus -18.002 21.973 19.0293
lradius 40.9108
lwrist 10.2273
lhand -13.6654 2.77668
lfingers 7.12502
lthumb 12.4517 32.3858
rfemur 0.853536 0.527589 8.60393
rtibia 40.1267
rfoot -16.9499 -29.0396
rtoes -3.91469
lfemur 1.91157 0.614844 -16.4936
ltibia 58.1535
lfoot 4.19614 5.68758
ltoes -11.906
470
root -0.278405 17.6534 -17.8938 -7.21896 16.9041 8.81078
lowerback 4.03794 -2.70974 7.19806
upperback -0.954823 -2.74833 11.8778
thorax -3.04579 -1.33156 8.75604
lowerneck -17.1737 -2.30937 3.20418
upperneck 23.3797 1.07228 -20.4136
head 10.5318 -1.61619 -7.9359
rclavicle 4.92986e-014 -1.52667e-013
rhumerus -32.3501 -27.9242 -5.49968
rradius 38.1195
rwrist -8.02942
rhand -21.147 -0.254737
rfingers 7.12502
rthumb 5.23237 -30.1701
lclavicle 4.92986e-014 -1.52667e-013
lhumerus -17.9778 21.9037 19.1071
lradius 40.8627
lwrist 9.97666
lhand -13.6577 2.75219
lfingers 7.12502
lthumb 12.4591 32.3608
rfemur 1.2625 0.581307 8.77497
rtibia 40.1289
rfoot -17.0914 -29.1054
rtoes -3.88905
lfemur 1.56828 0.788244 -16.5962
ltibia 58.4187
lfoot 3.42273 6.23726
ltoes -12.2661
